<mxfile host="app.diagrams.net" modified="2022-11-17T02:00:54.357Z" agent="5.0 (Windows)" etag="u_-6m5eGqyDxYMZ4_qbp" version="20.5.3" type="github">
  <diagram id="C5RBs43oDa-KdzZeNtuy" name="Page-1">
    <mxGraphModel dx="895" dy="870" grid="1" gridSize="10" guides="1" tooltips="1" connect="1" arrows="1" fold="1" page="1" pageScale="1" pageWidth="827" pageHeight="1169" math="0" shadow="0">
      <root>
        <mxCell id="WIyWlLk6GJQsqaUBKTNV-0" />
        <mxCell id="WIyWlLk6GJQsqaUBKTNV-1" parent="WIyWlLk6GJQsqaUBKTNV-0" />
        <mxCell id="RJXIEB-1T5As3xcgI4BQ-90" value="" style="edgeStyle=elbowEdgeStyle;rounded=0;orthogonalLoop=1;jettySize=auto;html=1;endArrow=open;startSize=14;endSize=14;sourcePerimeterSpacing=8;targetPerimeterSpacing=8;exitX=0.5;exitY=1;exitDx=0;exitDy=0;entryX=0.5;entryY=0;entryDx=0;entryDy=0;" parent="WIyWlLk6GJQsqaUBKTNV-1" source="RJXIEB-1T5As3xcgI4BQ-0" edge="1">
          <mxGeometry relative="1" as="geometry">
            <mxPoint x="232.5" y="150" as="targetPoint" />
          </mxGeometry>
        </mxCell>
        <mxCell id="RJXIEB-1T5As3xcgI4BQ-0" value="START" style="ellipse;whiteSpace=wrap;html=1;hachureGap=4;" parent="WIyWlLk6GJQsqaUBKTNV-1" vertex="1">
          <mxGeometry x="172.5" y="16" width="120" height="80" as="geometry" />
        </mxCell>
        <mxCell id="RJXIEB-1T5As3xcgI4BQ-14" value="" style="edgeStyle=none;curved=1;rounded=0;orthogonalLoop=1;jettySize=auto;html=1;endArrow=open;startSize=14;endSize=14;sourcePerimeterSpacing=8;targetPerimeterSpacing=8;entryX=0.5;entryY=0;entryDx=0;entryDy=0;" parent="WIyWlLk6GJQsqaUBKTNV-1" edge="1">
          <mxGeometry relative="1" as="geometry">
            <mxPoint x="232.5" y="210" as="sourcePoint" />
            <mxPoint x="232.5" y="240" as="targetPoint" />
          </mxGeometry>
        </mxCell>
        <mxCell id="RJXIEB-1T5As3xcgI4BQ-16" value="" style="edgeStyle=none;curved=1;rounded=0;orthogonalLoop=1;jettySize=auto;html=1;endArrow=open;startSize=14;endSize=14;sourcePerimeterSpacing=8;targetPerimeterSpacing=8;exitX=0.5;exitY=1;exitDx=0;exitDy=0;entryX=0.5;entryY=0;entryDx=0;entryDy=0;" parent="WIyWlLk6GJQsqaUBKTNV-1" edge="1">
          <mxGeometry relative="1" as="geometry">
            <mxPoint x="232.5" y="300" as="sourcePoint" />
            <mxPoint x="232.5" y="340" as="targetPoint" />
          </mxGeometry>
        </mxCell>
        <mxCell id="RJXIEB-1T5As3xcgI4BQ-18" value="" style="edgeStyle=none;curved=1;rounded=0;orthogonalLoop=1;jettySize=auto;html=1;endArrow=open;startSize=14;endSize=14;sourcePerimeterSpacing=8;targetPerimeterSpacing=8;entryX=-0.014;entryY=0.587;entryDx=0;entryDy=0;entryPerimeter=0;exitX=1;exitY=0.5;exitDx=0;exitDy=0;" parent="WIyWlLk6GJQsqaUBKTNV-1" source="RJXIEB-1T5As3xcgI4BQ-4" target="RJXIEB-1T5As3xcgI4BQ-5" edge="1">
          <mxGeometry relative="1" as="geometry" />
        </mxCell>
        <mxCell id="ylPWVasBDXra4Vw7ddgX-4" style="edgeStyle=none;curved=1;rounded=0;orthogonalLoop=1;jettySize=auto;html=1;exitX=0.5;exitY=1;exitDx=0;exitDy=0;entryX=0.5;entryY=0;entryDx=0;entryDy=0;fontSize=12;endArrow=open;startSize=14;endSize=14;sourcePerimeterSpacing=8;targetPerimeterSpacing=8;" edge="1" parent="WIyWlLk6GJQsqaUBKTNV-1" source="RJXIEB-1T5As3xcgI4BQ-4" target="ylPWVasBDXra4Vw7ddgX-3">
          <mxGeometry relative="1" as="geometry" />
        </mxCell>
        <mxCell id="RJXIEB-1T5As3xcgI4BQ-4" value="Ketersediaan item" style="rhombus;whiteSpace=wrap;html=1;hachureGap=4;" parent="WIyWlLk6GJQsqaUBKTNV-1" vertex="1">
          <mxGeometry x="164" y="340" width="138.5" height="120" as="geometry" />
        </mxCell>
        <mxCell id="RJXIEB-1T5As3xcgI4BQ-33" style="edgeStyle=elbowEdgeStyle;rounded=0;orthogonalLoop=1;jettySize=auto;html=1;endArrow=open;startSize=14;endSize=14;sourcePerimeterSpacing=8;targetPerimeterSpacing=8;" parent="WIyWlLk6GJQsqaUBKTNV-1" edge="1">
          <mxGeometry relative="1" as="geometry">
            <mxPoint x="232.5" y="120" as="targetPoint" />
            <Array as="points">
              <mxPoint x="562.5" y="260" />
              <mxPoint x="682.5" y="590" />
            </Array>
            <mxPoint x="502.5" y="395" as="sourcePoint" />
          </mxGeometry>
        </mxCell>
        <mxCell id="RJXIEB-1T5As3xcgI4BQ-5" value="item tidak tersedia" style="rounded=0;whiteSpace=wrap;html=1;hachureGap=4;" parent="WIyWlLk6GJQsqaUBKTNV-1" vertex="1">
          <mxGeometry x="365" y="360" width="140" height="70" as="geometry" />
        </mxCell>
        <mxCell id="ylPWVasBDXra4Vw7ddgX-14" style="edgeStyle=none;curved=1;rounded=0;orthogonalLoop=1;jettySize=auto;html=1;fontSize=12;endArrow=open;startSize=14;endSize=14;sourcePerimeterSpacing=8;targetPerimeterSpacing=8;entryX=0.5;entryY=0;entryDx=0;entryDy=0;exitX=0.478;exitY=1.021;exitDx=0;exitDy=0;exitPerimeter=0;" edge="1" parent="WIyWlLk6GJQsqaUBKTNV-1" source="RJXIEB-1T5As3xcgI4BQ-72" target="ylPWVasBDXra4Vw7ddgX-13">
          <mxGeometry relative="1" as="geometry" />
        </mxCell>
        <mxCell id="RJXIEB-1T5As3xcgI4BQ-72" value="&lt;div&gt;input nama, &lt;br&gt;&lt;/div&gt;&lt;div&gt;alamat penerima&lt;/div&gt;" style="shape=parallelogram;perimeter=parallelogramPerimeter;whiteSpace=wrap;html=1;fixedSize=1;hachureGap=4;" parent="WIyWlLk6GJQsqaUBKTNV-1" vertex="1">
          <mxGeometry x="148.5" y="751" width="164" height="69" as="geometry" />
        </mxCell>
        <mxCell id="RJXIEB-1T5As3xcgI4BQ-78" value="" style="edgeStyle=elbowEdgeStyle;rounded=0;orthogonalLoop=1;jettySize=auto;html=1;endArrow=open;startSize=14;endSize=14;sourcePerimeterSpacing=8;targetPerimeterSpacing=8;" parent="WIyWlLk6GJQsqaUBKTNV-1" edge="1">
          <mxGeometry relative="1" as="geometry">
            <mxPoint x="220" y="1110" as="sourcePoint" />
            <mxPoint x="500" y="761" as="targetPoint" />
            <Array as="points">
              <mxPoint x="350" y="1080" />
              <mxPoint x="370" y="1140" />
              <mxPoint x="410" y="880" />
            </Array>
          </mxGeometry>
        </mxCell>
        <mxCell id="RJXIEB-1T5As3xcgI4BQ-77" value="END" style="ellipse;whiteSpace=wrap;html=1;hachureGap=4;" parent="WIyWlLk6GJQsqaUBKTNV-1" vertex="1">
          <mxGeometry x="505" y="970" width="120" height="60" as="geometry" />
        </mxCell>
        <mxCell id="RJXIEB-1T5As3xcgI4BQ-92" value="&lt;b&gt;N&lt;/b&gt;" style="text;html=1;strokeColor=none;fillColor=none;align=center;verticalAlign=middle;whiteSpace=wrap;rounded=0;hachureGap=4;" parent="WIyWlLk6GJQsqaUBKTNV-1" vertex="1">
          <mxGeometry x="222.5" y="530" width="40" height="30" as="geometry" />
        </mxCell>
        <mxCell id="RJXIEB-1T5As3xcgI4BQ-93" value="&lt;font style=&quot;font-size: 12px;&quot;&gt;&lt;b&gt;Y&lt;/b&gt;&lt;/font&gt;" style="text;html=1;strokeColor=none;fillColor=none;align=center;verticalAlign=middle;whiteSpace=wrap;rounded=0;hachureGap=4;" parent="WIyWlLk6GJQsqaUBKTNV-1" vertex="1">
          <mxGeometry x="222.5" y="460" width="40" height="30" as="geometry" />
        </mxCell>
        <mxCell id="RJXIEB-1T5As3xcgI4BQ-96" value="&lt;b&gt;N&lt;/b&gt;" style="text;html=1;strokeColor=none;fillColor=none;align=center;verticalAlign=middle;whiteSpace=wrap;rounded=0;hachureGap=4;" parent="WIyWlLk6GJQsqaUBKTNV-1" vertex="1">
          <mxGeometry x="288.5" y="370" width="40" height="30" as="geometry" />
        </mxCell>
        <mxCell id="ylPWVasBDXra4Vw7ddgX-0" value="cari item" style="rounded=0;whiteSpace=wrap;html=1;fontSize=16;" vertex="1" parent="WIyWlLk6GJQsqaUBKTNV-1">
          <mxGeometry x="172" y="150" width="130" height="60" as="geometry" />
        </mxCell>
        <mxCell id="ylPWVasBDXra4Vw7ddgX-1" value="pilih suatu item" style="rounded=0;whiteSpace=wrap;html=1;fontSize=16;" vertex="1" parent="WIyWlLk6GJQsqaUBKTNV-1">
          <mxGeometry x="167.5" y="240" width="130" height="60" as="geometry" />
        </mxCell>
        <mxCell id="ylPWVasBDXra4Vw7ddgX-8" style="edgeStyle=none;curved=1;rounded=0;orthogonalLoop=1;jettySize=auto;html=1;entryX=0.5;entryY=0;entryDx=0;entryDy=0;fontSize=12;endArrow=open;startSize=14;endSize=14;sourcePerimeterSpacing=8;targetPerimeterSpacing=8;exitX=0.5;exitY=1;exitDx=0;exitDy=0;" edge="1" parent="WIyWlLk6GJQsqaUBKTNV-1" source="ylPWVasBDXra4Vw7ddgX-3" target="ylPWVasBDXra4Vw7ddgX-7">
          <mxGeometry relative="1" as="geometry" />
        </mxCell>
        <mxCell id="ylPWVasBDXra4Vw7ddgX-3" value="item tersedia" style="rounded=0;whiteSpace=wrap;html=1;hachureGap=4;" vertex="1" parent="WIyWlLk6GJQsqaUBKTNV-1">
          <mxGeometry x="163.25" y="515" width="140" height="70" as="geometry" />
        </mxCell>
        <mxCell id="ylPWVasBDXra4Vw7ddgX-9" style="edgeStyle=none;curved=1;rounded=0;orthogonalLoop=1;jettySize=auto;html=1;entryX=0.5;entryY=0;entryDx=0;entryDy=0;fontSize=12;endArrow=open;startSize=14;endSize=14;sourcePerimeterSpacing=8;targetPerimeterSpacing=8;" edge="1" parent="WIyWlLk6GJQsqaUBKTNV-1" target="RJXIEB-1T5As3xcgI4BQ-72">
          <mxGeometry relative="1" as="geometry">
            <mxPoint x="230.5" y="690" as="sourcePoint" />
          </mxGeometry>
        </mxCell>
        <mxCell id="ylPWVasBDXra4Vw7ddgX-7" value="beli item" style="rounded=0;whiteSpace=wrap;html=1;hachureGap=4;" vertex="1" parent="WIyWlLk6GJQsqaUBKTNV-1">
          <mxGeometry x="164" y="630" width="140" height="70" as="geometry" />
        </mxCell>
        <mxCell id="ylPWVasBDXra4Vw7ddgX-21" style="edgeStyle=none;curved=1;rounded=0;orthogonalLoop=1;jettySize=auto;html=1;fontSize=12;endArrow=open;startSize=14;endSize=14;sourcePerimeterSpacing=8;targetPerimeterSpacing=8;" edge="1" parent="WIyWlLk6GJQsqaUBKTNV-1" source="ylPWVasBDXra4Vw7ddgX-11">
          <mxGeometry relative="1" as="geometry">
            <mxPoint x="222" y="1110" as="targetPoint" />
          </mxGeometry>
        </mxCell>
        <mxCell id="ylPWVasBDXra4Vw7ddgX-11" value="&lt;div&gt;input tf / virtual acc / gopay&lt;/div&gt;&lt;div&gt;/ dana / ovo / cod&lt;br&gt;&lt;/div&gt;" style="shape=parallelogram;perimeter=parallelogramPerimeter;whiteSpace=wrap;html=1;fixedSize=1;hachureGap=4;" vertex="1" parent="WIyWlLk6GJQsqaUBKTNV-1">
          <mxGeometry x="140" y="1010" width="164" height="69" as="geometry" />
        </mxCell>
        <mxCell id="ylPWVasBDXra4Vw7ddgX-12" style="edgeStyle=none;curved=1;rounded=0;orthogonalLoop=1;jettySize=auto;html=1;entryX=0.5;entryY=0;entryDx=0;entryDy=0;fontSize=12;endArrow=open;startSize=14;endSize=14;sourcePerimeterSpacing=8;targetPerimeterSpacing=8;" edge="1" parent="WIyWlLk6GJQsqaUBKTNV-1" target="ylPWVasBDXra4Vw7ddgX-11">
          <mxGeometry relative="1" as="geometry">
            <mxPoint x="223.5" y="930" as="sourcePoint" />
          </mxGeometry>
        </mxCell>
        <mxCell id="ylPWVasBDXra4Vw7ddgX-13" value="pilih metode pembayaran" style="rounded=0;whiteSpace=wrap;html=1;hachureGap=4;" vertex="1" parent="WIyWlLk6GJQsqaUBKTNV-1">
          <mxGeometry x="157" y="870" width="140" height="70" as="geometry" />
        </mxCell>
        <mxCell id="ylPWVasBDXra4Vw7ddgX-22" style="edgeStyle=none;curved=1;rounded=0;orthogonalLoop=1;jettySize=auto;html=1;fontSize=12;endArrow=open;startSize=14;endSize=14;sourcePerimeterSpacing=8;targetPerimeterSpacing=8;exitX=0.5;exitY=1;exitDx=0;exitDy=0;" edge="1" parent="WIyWlLk6GJQsqaUBKTNV-1" source="ylPWVasBDXra4Vw7ddgX-16" target="ylPWVasBDXra4Vw7ddgX-17">
          <mxGeometry relative="1" as="geometry" />
        </mxCell>
        <mxCell id="ylPWVasBDXra4Vw7ddgX-16" value="bayar" style="rounded=0;whiteSpace=wrap;html=1;hachureGap=4;" vertex="1" parent="WIyWlLk6GJQsqaUBKTNV-1">
          <mxGeometry x="505" y="740" width="111.5" height="41" as="geometry" />
        </mxCell>
        <mxCell id="ylPWVasBDXra4Vw7ddgX-23" style="edgeStyle=none;curved=1;rounded=0;orthogonalLoop=1;jettySize=auto;html=1;fontSize=12;endArrow=open;startSize=14;endSize=14;sourcePerimeterSpacing=8;targetPerimeterSpacing=8;" edge="1" parent="WIyWlLk6GJQsqaUBKTNV-1" source="ylPWVasBDXra4Vw7ddgX-17" target="RJXIEB-1T5As3xcgI4BQ-77">
          <mxGeometry relative="1" as="geometry" />
        </mxCell>
        <mxCell id="ylPWVasBDXra4Vw7ddgX-17" value="konfirmasi order" style="rounded=0;whiteSpace=wrap;html=1;hachureGap=4;" vertex="1" parent="WIyWlLk6GJQsqaUBKTNV-1">
          <mxGeometry x="495.75" y="831" width="140" height="70" as="geometry" />
        </mxCell>
      </root>
    </mxGraphModel>
  </diagram>
</mxfile>
